<?xml version="1.0" encoding="UTF-8"?>
<svg xmlns="http://www.w3.org/2000/svg"
     width="450" height="500">
<defs>
    <marker id="arrow" markerWidth="10" markerHeight="10" refX="8.7" refY="3" orient="auto" markerUnits="strokeWidth">
        <path d="M0,0 l0,6 l9,-3 Z" />
    </marker>
</defs>
<g transform="translate(25,25)">

        <g id="app" transform="translate(0,0)">
            <rect x="0" y="0" width="400" height="150" stroke="black" stroke-width="2" rx="5" fill="white" />
            <text x="5" y="5" alignment-baseline="hanging">Application</text>
            <g id="your-code" transform="translate(40,45)">
                <rect x="0" y="0" width="150" height="70" stroke="black" fill="white" />
                <text transform="translate(75,35)" text-anchor="middle" alignment-baseline="middle">Your Code</text>
            </g>
            <g aria-description="plus" stroke="black" stroke-width="2" transform="translate(220,65) scale(3.0)">
                <line x1="0" y1="5" x2="10" y2="5" />
                <line x1="5" y1="0" x2="5" y2="10" />
            </g>
            <g aria-description="KraftSQL logo"
               transform="scale(2.0) translate(140,20)">
                <rect x="0" y="0" width="40" height="40" fill="#f8f8f8" />

                <path d="M1,39 l0,-38 l38,0 l-19,19 l19,19 Z" fill="#3080e0" aria-description="K" />
                <path d="M12,23 m1,0 l0,-8 m0,4 a3,3,0,0,1,3,-3" fill="none" stroke-width="2" stroke="#101010" stroke-linecap="butt" aria-description="r" />
                <path d="M17,23 m7,-4 a3,3,0,0,0,-6,0 a3,3,0,0,0,6,0 m0-4 l0,8" fill="none" stroke-width="2" stroke="#101010" stroke-linecap="butt" aria-description="a" />
                <path d="M26,23 m3,0 l0,-8 a3,3,0,0,1,3,-3 m-6,6 l6,0" fill="none" stroke-width="2" stroke="#101010" stroke-linecap="butt" aria-description="f" />
                <path d="M33,23 m3,-12 l0,8 a3,3,0,0,0,3,3 m-6,-6 l6,0" fill="none" stroke-width="2" stroke="#101010" stroke-linecap="butt" aria-description="t" />
                <g fill="none" stroke-width="2" stroke="#e06048" stroke-linecap="butt">
                    <path d="M11,39 m7,-10 a3,3,0,1,0,-3,3 a3,3,0,1,1,-3,3" aria-description="S" />
                    <path d="M21,39 m7,-10 a3,3,0,0,0,-6,0 l0,6 a3,3,0,0,0,6,0 l0,-6 m-2.5,6.4 l2.8,2.9" aria-description="Q" />
                    <path d="M31,39 m1,-14 l0,14 m-1,-1 l8,0" aria-description="L" />
                </g>
            </g>
        </g>

        <g id="db" transform="translate(0,250)">
            <rect x="0" y="0" width="400" height="200" stroke="black" stroke-width="2" fill="#efefef" />
            <text x="5" y="5" alignment-baseline="hanging">Database</text>
            <g id="sql-engine" transform="translate(10,25)">
                <rect x="0" y="0" width="380" height="75" stroke="black" fill="white" />
                <text transform="translate(190,37.5)" x="5" y="5" text-anchor="middle" alignment-baseline="middle">SQL Engine</text>
            </g>
            <line x1="200" y1="100" x2="200" y2="115" stroke="black" />
            <g id="data" transform="translate(10,115)">
                <g aria-description="database icon"
                   transform="translate(90,0) scale(2.0,1.0)" stroke="black" fill="white">
                    <path d="M0,10 l0,50 a50,10,0,0,0,100,0 l0,-50 Z" />
                    <ellipse cx="50" cy="10" rx="50" ry="10" />
                </g>
                <text transform="translate(190,37.5)" x="5" y="5" text-anchor="middle" alignment-baseline="middle">Data</text>
            </g>
        </g>

        <line x1="200" y1="150" x2="200" y2="275" stroke="black" stroke-width="2" marker-end="url(#arrow)" />
        <text transform="translate(205,175)">
            <tspan x="0">generates and</tspan>
            <tspan x="0" dy="1.2em">runs SQL</tspan>
        </text>

</g>
</svg>
